<?xml version="1.0" encoding="UTF-8" standalone="no"?>
<svg
   xmlns:dc="http://purl.org/dc/elements/1.1/"
   xmlns:cc="http://creativecommons.org/ns#"
   xmlns:rdf="http://www.w3.org/1999/02/22-rdf-syntax-ns#"
   xmlns:svg="http://www.w3.org/2000/svg"
   xmlns="http://www.w3.org/2000/svg"
   id="svg8"
   version="1.1"
   viewBox="0 0 297 210"
   height="210mm"
   width="297mm">
  <defs
     id="defs2">
    <filter
       height="1.1164461"
       y="-0.058223073"
       width="1.1146647"
       x="-0.057332373"
       id="filter4655"
       style="color-interpolation-filters:sRGB">
      <feGaussianBlur
         id="feGaussianBlur4657"
         stdDeviation="3.952293" />
    </filter>
  </defs>
  <metadata
     id="metadata5">
    <rdf:RDF>
      <cc:Work
         rdf:about="">
        <dc:format>image/svg+xml</dc:format>
        <dc:type
           rdf:resource="http://purl.org/dc/dcmitype/StillImage" />
        <dc:title></dc:title>
      </cc:Work>
    </rdf:RDF>
  </metadata>
  <g
     transform="translate(0,-87)"
     id="layer1">
    <path
       transform="matrix(1.7137086,0,0,0.82731578,-104.185,45.995477)"
       style="fill:#ff6b50;fill-opacity:1;stroke:#ff000f;stroke-width:0.83983865;stroke-opacity:1;stroke-miterlimit:4;stroke-dasharray:none;filter:url(#filter4655)"
       d="m 207.28017,239.94705 c 1.56966,-1.73346 -24.27521,-7.87878 -22.45921,-9.33612 1.81601,-1.45735 3.18458,25.37393 5.15628,24.12559 1.9717,-1.24834 -21.09122,-6.60411 -18.95776,-7.60876 2.13346,-1.00465 -7.46884,16.01264 -5.16323,15.49192 2.30561,-0.52072 -13.82191,-11.48045 -11.52768,-11.75309 2.29423,-0.27264 -16.70194,16.67057 -14.36975,16.68261 2.33219,0.012 -8.48342,-16.79246 -6.14559,-16.48123 2.33783,0.31123 -19.81102,10.51028 -17.62851,11.27389 2.1825,0.76362 -2.286,-22.67823 -0.27471,-21.5134 2.01128,1.16483 -18.837073,10.19124 -16.95789,11.5918 1.87918,1.40056 2.07664,-25.65025 3.68884,-24.00341 1.61221,1.64683 -22.076368,4.3235 -20.585517,6.2062 1.490852,1.88269 3.363383,-20.46297 4.432523,-18.39473 1.06914,2.06824 -19.806733,-4.95413 -19.068318,-2.72108 0.738415,2.23304 16.322326,-21.71245 16.726418,-19.42241 0.404092,2.29005 -21.288527,-8.75011 -21.273458,-6.38772 0.01507,2.3624 18.151795,-12.26838 17.89343,-9.88301 -0.258365,2.38537 -15.966611,-19.63154 -16.701151,-17.40676 -0.73454,2.22477 23.565758,-4.49244 22.529116,-2.33025 -1.036642,2.16219 -9.428999,-18.16532 -10.670673,-16.1438 -1.241674,2.02151 21.104842,-2.7237 19.710215,-0.86158 -1.394627,1.86212 1.213833,-17.71644 -0.629759,-16.2043 -1.843591,1.51214 17.862094,4.33194 15.867984,5.57102 -1.9941,1.23908 0.35159,-24.55954 -1.77376,-23.52644 -2.12536,1.03309 24.15655,11.62048 21.83758,12.23666 -2.31896,0.61618 9.89226,-14.72902 7.55886,-14.51376 -2.33341,0.21525 13.71214,15.14341 11.34349,15.14136 -2.36866,-0.002 10.47035,-13.50841 8.13055,-14.01864 -2.33979,-0.51023 9.37146,20.05634 7.06237,19.41318 -2.30909,-0.64317 23.36068,-11.21402 21.26465,-12.31054 -2.09603,-1.09652 1.47815,19.41529 -0.43895,18.09348 -1.91709,-1.32181 19.91639,-3.74666 18.2061,-5.29707 -1.7103,-1.5504 -5.89467,19.02146 -7.23041,17.06573 -1.33574,-1.95573 23.74085,2.8027 22.66698,0.69805 -1.07388,-2.10464 -12.69387,19.56046 -13.56463,17.34282 -0.87076,-2.21765 16.85809,7.26507 16.49867,4.98885 -0.35943,-2.27623 -15.28967,18.10586 -15.33706,15.72759 -0.0474,-2.37826 20.81807,15.62362 21.21784,13.31448 0.39978,-2.30914 -18.84813,10.34645 -18.31112,8.08049 0.53702,-2.26596 7.75478,16.92549 8.59275,14.67738 0.83798,-2.24811 -22.08978,3.84443 -20.93085,1.80668 1.15894,-2.03775 8.04567,22.32178 9.61534,20.58832 z"
       id="path3680" />
  </g>
</svg>
